<?xml version="1.0" encoding="utf-8"?>
<!-- Generator: Adobe Illustrator 21.0.0, SVG Export Plug-In . SVG Version: 6.00 Build 0)  -->
<svg version="1.1" id="Layer_1" xmlns="http://www.w3.org/2000/svg" xmlns:xlink="http://www.w3.org/1999/xlink" x="0px" y="0px"
	 viewBox="0 0 3600.121 638.011" enable-background="new 0 0 3600.121 638.011" xml:space="preserve">
<g>
	<g>
		<defs>
			<rect id="SVGID_1_" x="-0.03" y="-0.028" width="803.881" height="637.999"/>
		</defs>
		<clipPath id="SVGID_2_">
			<use xlink:href="#SVGID_1_"  overflow="visible"/>
		</clipPath>
		<g clip-path="url(#SVGID_2_)">
			<defs>
				<rect id="SVGID_3_" x="-0.03" y="-0.028" width="803.881" height="637.999"/>
			</defs>
			<clipPath id="SVGID_4_">
				<use xlink:href="#SVGID_3_"  overflow="visible"/>
			</clipPath>
			<g clip-path="url(#SVGID_4_)">
				<defs>
					<rect id="SVGID_5_" x="-0.03" y="-0.028" width="803.881" height="637.999"/>
				</defs>
				<clipPath id="SVGID_6_">
					<use xlink:href="#SVGID_5_"  overflow="visible"/>
				</clipPath>
				<path clip-path="url(#SVGID_6_)" fill="#E6E7E8" d="M107.032,637.97h342.594h314.751c19.556,0,35.847-13.957,39.472-32.451
					V92.007H107.032V637.97z"/>
				<path clip-path="url(#SVGID_6_)" fill="#939598" d="M764.377-0.029H411.721v92.035h392.128V32.423
					C800.223,13.927,783.932-0.029,764.377-0.029"/>
				
					<line clip-path="url(#SVGID_6_)" fill="none" stroke="#BCBEC0" stroke-miterlimit="10" x1="803.849" y1="178.221" x2="181.038" y2="178.221"/>
				
					<line clip-path="url(#SVGID_6_)" fill="none" stroke="#BCBEC0" stroke-miterlimit="10" x1="803.849" y1="272.371" x2="181.038" y2="272.371"/>
				
					<line clip-path="url(#SVGID_6_)" fill="none" stroke="#BCBEC0" stroke-miterlimit="10" x1="803.849" y1="366.52" x2="181.038" y2="366.979"/>
				
					<line clip-path="url(#SVGID_6_)" fill="none" stroke="#BCBEC0" stroke-miterlimit="10" x1="803.849" y1="460.671" x2="181.038" y2="460.671"/>
				
					<line clip-path="url(#SVGID_6_)" fill="none" stroke="#BCBEC0" stroke-miterlimit="10" x1="803.849" y1="554.82" x2="181.038" y2="554.82"/>
				
					<line clip-path="url(#SVGID_6_)" fill="none" stroke="#BCBEC0" stroke-miterlimit="10" x1="535.763" y1="637.97" x2="535.763" y2="92.007"/>
				
					<line clip-path="url(#SVGID_6_)" fill="none" stroke="#BCBEC0" stroke-miterlimit="10" x1="353.236" y1="92.007" x2="353.236" y2="637.971"/>
				
					<line clip-path="url(#SVGID_6_)" fill="none" stroke="#BCBEC0" stroke-miterlimit="10" x1="627.027" y1="637.97" x2="627.027" y2="92.007"/>
				
					<line clip-path="url(#SVGID_6_)" fill="none" stroke="#BCBEC0" stroke-miterlimit="10" x1="444.5" y1="92.007" x2="444.5" y2="637.971"/>
				
					<line clip-path="url(#SVGID_6_)" fill="none" stroke="#BCBEC0" stroke-miterlimit="10" x1="261.973" y1="92.007" x2="261.973" y2="637.971"/>
				
					<line clip-path="url(#SVGID_6_)" fill="none" stroke="#BCBEC0" stroke-miterlimit="10" x1="718.288" y1="92.007" x2="718.288" y2="637.971"/>
				<polygon clip-path="url(#SVGID_6_)" fill="#A7A9AC" points="485.379,198.372 352.245,198.372 351.986,232.605 485.379,232.605 
									"/>
				<rect x="582.025" y="397.683" clip-path="url(#SVGID_6_)" fill="#A7A9AC" width="183.945" height="34.234"/>
				<polygon clip-path="url(#SVGID_6_)" fill="#A7A9AC" points="353.236,492.78 260.181,492.78 259.721,527.016 353.236,527.016 
									"/>
			</g>
			<g clip-path="url(#SVGID_4_)">
				<defs>
					<rect id="SVGID_7_" x="-0.03" y="-0.028" width="803.881" height="637.999"/>
				</defs>
				<clipPath id="SVGID_8_">
					<use xlink:href="#SVGID_7_"  overflow="visible"/>
				</clipPath>
				<g opacity="0.1" clip-path="url(#SVGID_8_)">
					<g>
						<defs>
							<rect id="SVGID_9_" x="84.28" y="-0.028" width="680.097" height="637.999"/>
						</defs>
						<clipPath id="SVGID_10_">
							<use xlink:href="#SVGID_9_"  overflow="visible"/>
						</clipPath>
						<polyline clip-path="url(#SVGID_10_)" fill="#414042" points="535.763,-0.029 84.28,-0.029 84.28,637.97 764.377,637.97 
													"/>
					</g>
				</g>
				<path clip-path="url(#SVGID_8_)" fill="#4272B7" d="M322.389,420.596c4.685-14.704,9.273-29.73,13.804-44.931
					c0.861-2.889,1.719-5.785,2.578-8.685c29.044-98.258,56.111-202.723,92.307-274.973c27.82-55.53,61.03-92.035,104.685-92.035
					h-61.907H40.201c-22.218,0-40.232,18.013-40.232,40.232v557.534c0,22.219,18.014,40.232,40.232,40.232h95.108h3.254h17.11
					h11.234C239.972,637.97,284.385,539.863,322.389,420.596"/>
				<path clip-path="url(#SVGID_8_)" fill="#3C629A" d="M194.73,20.087h-43.502L23.305,325.394L135.309,637.97h3.256h17.108h11.234
					c73.064,0,117.477-98.107,155.482-217.374c4.685-14.704,9.273-29.73,13.804-44.931c0.861-2.889,1.72-5.785,2.578-8.685
					l-14.971-41.792L194.73,20.087z"/>
			</g>
			<g clip-path="url(#SVGID_4_)">
				<defs>
					<rect id="SVGID_11_" x="23.306" y="20.089" width="300.497" height="305.307"/>
				</defs>
				<clipPath id="SVGID_12_">
					<use xlink:href="#SVGID_11_"  overflow="visible"/>
				</clipPath>
				<polygon clip-path="url(#SVGID_12_)" fill="#D1D3D4" points="152.779,20.089 232.85,210.303 99.414,247.101 247.696,247.101 
					323.802,325.397 194.332,20.089 				"/>
				<polygon clip-path="url(#SVGID_12_)" fill="#FFFFFF" points="152.779,20.089 23.306,325.397 99.414,247.101 194.332,20.089 				
					"/>
			</g>
		</g>
	</g>
</g>
<g>
	<g>
		<g>
			<defs>
				<rect id="SVGID_13_" x="954.856" y="0.011" width="1188.664" height="638"/>
			</defs>
			<clipPath id="SVGID_14_">
				<use xlink:href="#SVGID_13_"  overflow="visible"/>
			</clipPath>
			<g clip-path="url(#SVGID_14_)">
				<defs>
					<rect id="SVGID_15_" x="954.856" y="0.008" width="1188.664" height="638.003"/>
				</defs>
				<clipPath id="SVGID_16_">
					<use xlink:href="#SVGID_15_"  overflow="visible"/>
				</clipPath>
				<path clip-path="url(#SVGID_16_)" fill="#4272B7" d="M1749.658,469.497c-27.898,27.706-60.501,41.552-97.816,41.552
					c-37.324,0-69.641-14.23-96.953-42.703h-1.734v169.665h-52.513v-427.05h46.165l2.804,36.933h5.278
					c27.313-28.467,59.629-42.706,96.953-42.706c37.315,0,69.918,13.85,97.816,41.55c27.893,27.703,41.839,64.837,41.839,111.382
					C1791.497,404.671,1777.551,441.8,1749.658,469.497 M1644.338,254.242c-34.626,0-65.024,14.428-91.184,43.284v121.19
					c26.159,28.854,56.558,43.28,91.184,43.28c28.467,0,51.362-9.035,68.675-27.121c17.316-18.08,25.972-43.663,25.972-76.754
					c0-33.085-8.655-58.667-25.972-76.756C1695.7,263.286,1672.805,254.242,1644.338,254.242"/>
				<path clip-path="url(#SVGID_16_)" fill="#4272B7" d="M2020.029,255.972h-83.679v174.285c0,16.154,4.417,26.168,13.273,30.01
					c7.303,3.083,16.734,4.613,28.277,4.613s24.237-3.072,38.089-9.232h4.039v42.708c-16.16,8.455-33.472,12.695-51.94,12.695
					c-56.176,0-84.256-25.391-84.256-76.175V255.972h-54.821v-3.463l107.339-105.029v63.481h83.679V255.972z"/>
				<path clip-path="url(#SVGID_16_)" fill="#4272B7" d="M2143.521,148.634h-56.558V92.077h56.558V148.634z M2088.696,210.961
					h52.516V505.28h-52.516V210.961z"/>
			</g>
			<g clip-path="url(#SVGID_14_)">
				<defs>
					<rect id="SVGID_17_" x="954.856" y="0.011" width="496.178" height="504.117"/>
				</defs>
				<clipPath id="SVGID_18_">
					<use xlink:href="#SVGID_17_"  overflow="visible"/>
				</clipPath>
				<polygon clip-path="url(#SVGID_18_)" fill="#39629B" points="1168.641,0.009 1300.855,314.088 1080.527,374.846 
					1325.37,374.846 1451.034,504.128 1237.255,0.009 				"/>
				<polygon clip-path="url(#SVGID_18_)" fill="#4272B6" points="1168.641,0.009 954.856,504.128 1080.527,374.846 1237.255,0.009 
									"/>
			</g>
		</g>
	</g>
	<g>
		<path fill="#3C629A" d="M2557.948,392.481c0,75.365-49.411,113.043-148.225,113.043h-165.527V102.951h162.066
			c41.139,0,72.96,9.426,95.452,28.261c22.494,18.844,33.74,44.221,33.74,76.131c0,42.301-18.456,71.715-55.368,88.242v1.731
			C2531.995,313.853,2557.948,345.574,2557.948,392.481z M2296.681,277.13h95.74c34.218,0,58.252-5.768,72.094-17.303
			c13.843-11.535,20.764-27.008,20.764-46.429c0-19.412-7.407-34.506-22.205-45.275c-14.807-10.76-35.092-16.149-60.847-16.149
			h-105.546V277.13z M2296.681,456.5h107.852c37.291,0,63.731-5.767,79.304-17.302c15.573-11.535,23.358-27.873,23.358-49.024
			c0-43.833-34.028-65.749-102.085-65.749h-108.429V456.5z"/>
		<path fill="#3C629A" d="M2615.62,358.452c0-45.752,13.455-82.665,40.373-110.736c26.908-28.063,62.577-42.103,106.987-42.103
			c44.409,0,80.169,14.04,107.276,42.103c27.106,28.071,40.66,64.984,40.66,110.736c0,45.763-13.554,82.675-40.66,110.736
			c-27.107,28.072-62.867,42.104-107.276,42.104c-44.41,0-80.079-14.031-106.987-42.104
			C2629.075,441.126,2615.62,404.214,2615.62,358.452z M2696.653,437.179c19.033,17.501,41.238,26.242,66.615,26.242
			s47.582-8.741,66.615-26.242c19.033-17.492,28.549-43.833,28.549-79.016c0-35.182-9.516-61.425-28.549-78.727
			c-19.033-17.302-41.238-25.954-66.615-25.954s-47.582,8.652-66.615,25.954c-19.031,17.302-28.549,43.545-28.549,78.727
			C2668.104,393.346,2677.622,419.687,2696.653,437.179z"/>
		<path fill="#3C629A" d="M2966.277,358.452c0-45.752,13.454-82.665,40.372-110.736c26.91-28.063,62.579-42.103,106.988-42.103
			c44.41,0,80.169,14.04,107.276,42.103c27.107,28.071,40.66,64.984,40.66,110.736c0,45.763-13.553,82.675-40.66,110.736
			c-27.107,28.072-62.866,42.104-107.276,42.104c-44.409,0-80.078-14.031-106.988-42.104
			C2979.731,441.126,2966.277,404.214,2966.277,358.452z M3047.312,437.179c19.033,17.501,41.237,26.242,66.615,26.242
			c25.376,0,47.582-8.741,66.615-26.242c19.032-17.492,28.549-43.833,28.549-79.016c0-35.182-9.517-61.425-28.549-78.727
			c-19.033-17.302-41.239-25.954-66.615-25.954c-25.378,0-47.582,8.652-66.615,25.954c-19.032,17.302-28.549,43.545-28.549,78.727
			C3018.763,393.346,3028.279,419.687,3047.312,437.179z"/>
		<path fill="#3C629A" d="M3467.468,329.616l132.653,175.908h-64.596l-103.816-138.997h-1.729l-42.681,42.68v96.317h-52.483V84.495
			h52.483v257.809h1.731l127.461-130.923h70.365L3467.468,329.616z"/>
	</g>
</g>
<g>
</g>
<g>
</g>
<g>
</g>
<g>
</g>
<g>
</g>
<g>
</g>
</svg>
