<?xml version="1.0" encoding="utf-8"?>
<!--
  ~ Copyright (C) 2016 AptiTekk, LLC. (https://AptiTekk.com/) - All Rights Reserved
  ~ Unauthorized copying of any part of AptiCtrl, via any medium, is strictly prohibited.
  ~ Proprietary and confidential.
  -->

<!-- Generator: Adobe Illustrator 21.0.2, SVG Export Plug-In . SVG Version: 6.00 Build 0)  -->
<svg version="1.1" id="Layer_1" xmlns="http://www.w3.org/2000/svg" xmlns:xlink="http://www.w3.org/1999/xlink" x="0px" y="0px"
	 viewBox="0 0 1947.323 396.449" enable-background="new 0 0 1947.323 396.449" xml:space="preserve">
<g>
	<g>
		<g>
			<g>
				<defs>
					<rect id="SVGID_1_" x="596" y="0" width="737.793" height="396"/>
				</defs>
				<clipPath id="SVGID_2_">
					<use xlink:href="#SVGID_1_"  overflow="visible"/>
				</clipPath>
				<g clip-path="url(#SVGID_2_)">
					<defs>
						<rect id="SVGID_3_" x="596" y="-0.002" width="737.793" height="396.003"/>
					</defs>
					<clipPath id="SVGID_4_">
						<use xlink:href="#SVGID_3_"  overflow="visible"/>
					</clipPath>
					<path clip-path="url(#SVGID_4_)" fill="#4272B7" d="M1089.327,291.406c-17.317,17.196-37.553,25.791-60.715,25.791
						c-23.166,0-43.224-8.832-60.178-26.505h-1.076V396h-32.594V130.934h28.655l1.74,22.924h3.276
						c16.954-17.669,37.012-26.508,60.178-26.508c23.162,0,43.398,8.597,60.715,25.791c17.312,17.194,25.969,40.243,25.969,69.133
						C1115.295,251.169,1106.639,274.214,1089.327,291.406 M1023.955,157.798c-21.492,0-40.36,8.955-56.597,26.866v75.22
						c16.237,17.911,35.105,26.864,56.597,26.864c17.669,0,31.88-5.607,42.626-16.833c10.748-11.223,16.12-27.102,16.12-47.641
						c0-20.535-5.372-36.413-16.12-47.641C1055.834,163.412,1041.624,157.798,1023.955,157.798"/>
					<path clip-path="url(#SVGID_4_)" fill="#4272B7" d="M1257.143,158.873h-51.938V267.05c0,10.027,2.741,16.241,8.238,18.626
						c4.532,1.914,10.385,2.864,17.55,2.864s15.045-1.907,23.641-5.73h2.508v26.508c-10.031,5.249-20.775,7.88-32.238,7.88
						c-34.869,0-52.298-15.759-52.298-47.28V158.873h-34.026v-2.149l66.625-65.191v39.403h51.938V158.873z"/>
					<path clip-path="url(#SVGID_4_)" fill="#4272B7" d="M1333.793,92.249h-35.104V57.144h35.104V92.249z M1299.764,130.935h32.594
						v182.681h-32.594V130.935z"/>
				</g>
				<g clip-path="url(#SVGID_2_)">
					<defs>
						<rect id="SVGID_5_" x="596" y="0" width="307.973" height="312.901"/>
					</defs>
					<clipPath id="SVGID_6_">
						<use xlink:href="#SVGID_5_"  overflow="visible"/>
					</clipPath>
					<polygon clip-path="url(#SVGID_6_)" fill="#39629B" points="728.694,-0.002 810.758,194.945 674.003,232.656 825.974,232.656 
						903.973,312.901 771.282,-0.002 					"/>
					<polygon clip-path="url(#SVGID_6_)" fill="#4272B6" points="728.694,-0.002 596,312.901 674.003,232.656 771.282,-0.002 					
						"/>
				</g>
			</g>
		</g>
		<g>
			<path fill="#3C629A" d="M1588.728,115.546c-24.405-16.109-51.299-24.167-80.676-24.167c-29.382,0-52.367,9.009-68.948,27.011
				c-16.587,18.01-24.88,41.227-24.88,69.659c0,28.429,8.293,51.654,24.88,69.661c16.582,18.007,39.566,27.011,68.948,27.011
				c29.377,0,56.271-8.053,80.676-24.17h1.778v31.988c-25.59,15.401-53.665,23.102-84.232,23.102
				c-36.25,0-66.051-11.554-89.383-34.656c-23.342-23.102-35.003-54.073-35.003-92.937c0-38.856,11.661-69.835,35.003-92.937
				c23.332-23.102,53.133-34.65,89.383-34.65c30.568,0,58.642,7.701,84.232,23.099v31.986H1588.728z"/>
			<path fill="#3C629A" d="M1733.733,158.551h-51.534V265.88c0,9.954,2.719,16.117,8.176,18.483
				c4.497,1.901,10.302,2.841,17.415,2.841c7.103,0,14.921-1.891,23.455-5.682h2.489v26.296c-9.949,5.212-20.613,7.823-31.988,7.823
				c-34.594,0-51.891-15.642-51.891-46.914V158.551h-33.756v-2.133l66.102-64.682v39.094h51.534V158.551z"/>
			<path fill="#3C629A" d="M1874.466,127.276h2.846v30.92h-2.846c-13.981,0-27.006,2.726-39.091,8.173
				c-12.085,5.452-21.564,13.033-28.432,22.747v122.968h-32.346V130.83h28.437l3.909,22.744v5.332h0.71
				C1824.71,137.82,1846.979,127.276,1874.466,127.276z"/>
			<path fill="#3C629A" d="M1947.323,52.64v259.444h-32.341V52.64H1947.323z"/>
		</g>
	</g>
	<g>
		<g>
			<defs>
				<rect id="SVGID_7_" y="0" width="499.528" height="396.449"/>
			</defs>
			<clipPath id="SVGID_8_">
				<use xlink:href="#SVGID_7_"  overflow="visible"/>
			</clipPath>
			<g clip-path="url(#SVGID_8_)">
				<defs>
					<rect id="SVGID_9_" y="0" width="499.529" height="396.449"/>
				</defs>
				<clipPath id="SVGID_10_">
					<use xlink:href="#SVGID_9_"  overflow="visible"/>
				</clipPath>
				<g clip-path="url(#SVGID_10_)">
					<defs>
						<rect id="SVGID_11_" y="0" width="499.529" height="396.449"/>
					</defs>
					<clipPath id="SVGID_12_">
						<use xlink:href="#SVGID_11_"  overflow="visible"/>
					</clipPath>
					<path clip-path="url(#SVGID_12_)" fill="#E6E7E8" d="M474.528,396.449H92.195c-13.808,0-25-11.193-25-25V25
						c0-13.807,11.192-25,25-25h382.333c13.808,0,25,11.193,25,25v346.449C499.528,385.256,488.336,396.449,474.528,396.449"/>
					<rect x="210.579" y="25.32" clip-path="url(#SVGID_12_)" fill="#D1D3D4" width="262.667" height="31.697"/>
					<rect x="356.712" y="25.32" clip-path="url(#SVGID_12_)" fill="#A7A9AC" width="14.917" height="31.697"/>
					<rect x="210.58" y="25.32" clip-path="url(#SVGID_12_)" fill="#BCBEC0" width="146.132" height="31.697"/>
					<rect x="210.579" y="71.511" clip-path="url(#SVGID_12_)" fill="#D1D3D4" width="262.667" height="31.697"/>
					<rect x="300.776" y="71.511" clip-path="url(#SVGID_12_)" fill="#A7A9AC" width="14.916" height="31.697"/>
					<rect x="210.579" y="71.511" clip-path="url(#SVGID_12_)" fill="#BCBEC0" width="90.197" height="31.697"/>
					<rect x="210.579" y="117.702" clip-path="url(#SVGID_12_)" fill="#D1D3D4" width="262.667" height="31.697"/>
					<rect x="407.987" y="117.702" clip-path="url(#SVGID_12_)" fill="#A7A9AC" width="14.916" height="31.697"/>
					<rect x="210.579" y="117.702" clip-path="url(#SVGID_12_)" fill="#BCBEC0" width="197.408" height="31.697"/>
					<rect x="311.348" y="345.459" clip-path="url(#SVGID_12_)" fill="#BCBEC0" width="69.027" height="50.99"/>
					<rect x="219.312" y="379.972" clip-path="url(#SVGID_12_)" fill="#BCBEC0" width="69.027" height="16.477"/>
					<rect x="403.384" y="299.441" clip-path="url(#SVGID_12_)" fill="#BCBEC0" width="69.027" height="97.008"/>
					<polygon clip-path="url(#SVGID_12_)" fill="#A7A9AC" points="473.012,172.891 402.125,187.317 422.399,207.496 341.47,287.042 
						306.015,251.575 213.379,343.692 230.037,360.445 305.968,284.951 341.305,320.311 439.128,224.178 458.823,243.79 					"/>
				</g>
				<g clip-path="url(#SVGID_10_)">
					<defs>
						<rect id="SVGID_13_" y="0" width="499.529" height="396.449"/>
					</defs>
					<clipPath id="SVGID_14_">
						<use xlink:href="#SVGID_13_"  overflow="visible"/>
					</clipPath>
					<g opacity="0.1" clip-path="url(#SVGID_14_)">
						<g>
							<defs>
								<rect id="SVGID_15_" x="52.39" y="0" width="422.61" height="396.449"/>
							</defs>
							<clipPath id="SVGID_16_">
								<use xlink:href="#SVGID_15_"  overflow="visible"/>
							</clipPath>
							<polyline clip-path="url(#SVGID_16_)" fill="#414042" points="332.94,0 52.39,0 52.39,396.449 475,396.449 							"/>
						</g>
					</g>
					<path clip-path="url(#SVGID_14_)" fill="#4272B7" d="M200.351,261.374c2.911-9.137,5.762-18.474,8.578-27.92
						c0.535-1.795,1.068-3.595,1.602-5.397C228.579,167,245.398,102.086,267.89,57.19C285.177,22.684,305.814,0,332.941,0h-38.469
						H25C11.194,0,0,11.193,0,25v346.449c0,13.807,11.194,25,25,25h59.1h2.022h10.632h6.981
						C149.137,396.449,176.735,335.486,200.351,261.374"/>
					<path clip-path="url(#SVGID_14_)" fill="#3C629A" d="M121.023,12.5H93.991L14.5,202.216l69.599,194.233h2.023h10.631h6.981
						c45.402,0,73-60.963,96.616-135.075c2.911-9.137,5.762-18.474,8.578-27.92c0.535-1.795,1.069-3.595,1.602-5.397l-9.303-25.969
						L121.023,12.5z"/>
				</g>
				<g clip-path="url(#SVGID_10_)">
					<defs>
						<rect id="SVGID_17_" x="14.501" y="12.501" width="186.728" height="189.716"/>
					</defs>
					<clipPath id="SVGID_18_">
						<use xlink:href="#SVGID_17_"  overflow="visible"/>
					</clipPath>
					<polygon clip-path="url(#SVGID_18_)" fill="#D1D3D4" points="94.955,12.501 144.711,130.699 61.794,153.565 153.936,153.565 
						201.228,202.218 120.776,12.501 					"/>
					<polygon clip-path="url(#SVGID_18_)" fill="#FFFFFF" points="94.955,12.501 14.501,202.218 61.794,153.565 120.776,12.501 
											"/>
				</g>
			</g>
		</g>
	</g>
</g>
<g>
</g>
<g>
</g>
<g>
</g>
<g>
</g>
<g>
</g>
<g>
</g>
<g>
</g>
<g>
</g>
<g>
</g>
<g>
</g>
<g>
</g>
<g>
</g>
<g>
</g>
<g>
</g>
<g>
</g>
</svg>
