<?xml version="1.0" encoding="utf-8"?>
<!-- Generator: Adobe Illustrator 21.0.2, SVG Export Plug-In . SVG Version: 6.00 Build 0)  -->
<svg version="1.1" xmlns="http://www.w3.org/2000/svg" xmlns:xlink="http://www.w3.org/1999/xlink" x="0px" y="0px"
	 viewBox="0 0 499.529 396.449" enable-background="new 0 0 499.529 396.449" xml:space="preserve">
<g id="Underlay">
	<path fill="#E6E7E8" d="M474.529,396.449H92.195c-13.807,0-25-11.193-25-25V25c0-13.807,11.193-25,25-25h382.334
		c13.807,0,25,11.193,25,25v346.449C499.529,385.256,488.336,396.449,474.529,396.449z"/>
	<g>
		<g>
			<rect x="210.579" y="25.32" fill="#D1D3D4" width="262.667" height="31.697"/>
			<rect x="356.712" y="25.32" fill="#A7A9AC" width="14.916" height="31.697"/>
			<rect x="210.579" y="25.32" fill="#BCBEC0" width="146.133" height="31.697"/>
		</g>
		<g>
			<rect x="210.579" y="71.511" fill="#D1D3D4" width="262.667" height="31.697"/>
			<rect x="300.776" y="71.511" fill="#A7A9AC" width="14.916" height="31.697"/>
			<rect x="210.579" y="71.511" fill="#BCBEC0" width="90.197" height="31.697"/>
		</g>
		<g>
			<rect x="210.579" y="117.702" fill="#D1D3D4" width="262.667" height="31.697"/>
			<rect x="407.987" y="117.702" fill="#A7A9AC" width="14.916" height="31.697"/>
			<rect x="210.579" y="117.702" fill="#BCBEC0" width="197.408" height="31.697"/>
		</g>
	</g>
	<g>
		<rect x="311.348" y="345.459" fill="#BCBEC0" width="69.027" height="50.99"/>
		<rect x="219.312" y="379.973" fill="#BCBEC0" width="69.027" height="16.476"/>
		<rect x="403.384" y="299.441" fill="#BCBEC0" width="69.027" height="97.008"/>
	</g>
	<polygon fill="#A7A9AC" points="473.012,172.891 402.125,187.317 422.399,207.496 341.47,287.042 306.015,251.575 213.378,343.692 
		230.036,360.445 305.968,284.951 341.305,320.312 439.128,224.178 458.823,243.79 	"/>
</g>
<g id="Overlay_1_">
	<path opacity="0.1" fill="#414042" d="M332.94,0C308.319,0,52.39,0,52.39,0v396.449H475"/>
	<g id="Overlay">
		<path fill="#4272B7" d="M200.351,261.374c2.911-9.137,5.762-18.474,8.578-27.92c0.535-1.795,1.069-3.595,1.602-5.398
			C228.579,167,245.398,102.086,267.89,57.19C285.177,22.684,305.814,0,332.94,0h-38.469H25C11.193,0,0,11.193,0,25v346.449
			c0,13.807,11.193,25,25,25h59.1h2.023h10.631h6.981C149.137,396.449,176.735,335.486,200.351,261.374z"/>
		<path fill="#3C629A" d="M121.023,12.5H93.992L14.5,202.216l69.6,194.233h2.023h10.631h6.981c45.402,0,73-60.963,96.616-135.075
			c2.911-9.137,5.762-18.474,8.578-27.92c0.535-1.795,1.069-3.595,1.602-5.398l-9.303-25.969L121.023,12.5z"/>
		<g>
			<g>
				<defs>
					<rect id="SVGID_1_" x="14.501" y="12.502" width="186.727" height="189.716"/>
				</defs>
				<clipPath id="SVGID_2_">
					<use xlink:href="#SVGID_1_"  overflow="visible"/>
				</clipPath>
				<polygon clip-path="url(#SVGID_2_)" fill="#D1D3D4" points="94.955,12.501 144.711,130.699 61.794,153.565 153.937,153.565 
					201.229,202.218 120.776,12.501 				"/>
				<polygon clip-path="url(#SVGID_2_)" fill="#FFFFFF" points="94.955,12.501 14.501,202.218 61.794,153.565 120.776,12.501 				
					"/>
			</g>
		</g>
	</g>
	<g>
	</g>
	<g>
	</g>
	<g>
	</g>
	<g>
	</g>
	<g>
	</g>
	<g>
	</g>
</g>
</svg>
