<?xml version="1.0" standalone="no"?>
<!DOCTYPE svg PUBLIC "-//W3C//DTD SVG 20010904//EN"
 "http://www.w3.org/TR/2001/REC-SVG-20010904/DTD/svg10.dtd">
<svg version="1.0" xmlns="http://www.w3.org/2000/svg"
 width="16.000000pt" height="16.000000pt" viewBox="0 0 16.000000 16.000000"
 preserveAspectRatio="xMidYMid meet">
<metadata>
Created by potrace 1.11, written by Peter Selinger 2001-2013
</metadata>
<g transform="translate(0.000000,16.000000) scale(0.001600,-0.001600)"
fill="#000000" stroke="none">
<path d="M373 8955 c-172 -47 -313 -189 -358 -360 -13 -53 -15 -452 -15 -3595
0 -3897 -5 -3586 61 -3711 38 -71 136 -167 207 -203 113 -57 88 -56 1062 -56
l895 0 95 25 c414 110 761 470 1100 1139 269 532 531 1266 860 2411 39 138 84
293 100 345 15 52 46 158 69 235 90 309 174 595 202 688 l31 97 1337 0 c736 0
1588 3 1894 7 l557 6 0 312 0 312 -727 6 c-401 4 -1207 7 -1792 7 -846 0
-1062 3 -1059 13 3 6 24 69 49 140 l44 127 1207 0 c898 0 1208 3 1208 11 0 9
-179 515 -217 617 -4 9 -208 12 -974 12 -533 0 -969 2 -969 5 0 3 29 66 64
140 l65 135 828 1 c455 1 923 5 1038 8 l210 6 3 308 c2 241 0 309 -10 312 -7
3 -384 8 -838 12 l-825 8 100 104 c224 231 447 352 705 380 41 5 -1327 9
-3040 9 -2651 1 -3123 -1 -3167 -13z m2183 -580 c79 -187 178 -421 220 -520
42 -99 102 -241 134 -315 32 -74 94 -220 138 -325 44 -104 277 -653 517 -1219
239 -566 434 -1029 433 -1030 -3 -1 -83 80 -633 647 l-279 287 -890 0 c-489 0
-887 2 -885 4 4 4 205 61 464 131 52 15 210 58 783 215 188 52 342 99 342 105
0 6 -40 105 -89 220 -49 116 -195 464 -326 775 -130 311 -254 605 -275 655
-21 49 -42 91 -47 92 -4 2 -27 -43 -50 -99 -23 -57 -107 -258 -186 -448 -80
-190 -265 -633 -412 -985 -147 -352 -274 -651 -283 -665 -13 -21 -921 -960
-928 -960 -4 0 -76 -172 699 1655 371 875 725 1710 787 1858 l113 267 254 -2
255 -3 144 -340z"/>
<path d="M9340 5483 c-63 -13 -344 -71 -625 -128 -637 -130 -645 -131 -653
-139 -3 -4 83 -96 191 -204 l198 -198 -153 -150 c-84 -83 -423 -416 -753 -741
-330 -324 -625 -613 -656 -641 l-55 -51 -350 350 c-192 192 -354 348 -361 347
-6 -2 -426 -416 -933 -922 l-922 -918 163 -168 c90 -92 169 -168 174 -169 6 0
348 337 760 749 412 413 754 750 760 750 5 0 167 -157 360 -350 l350 -349 505
496 c278 273 715 705 972 960 257 254 473 463 479 463 6 0 97 -85 203 -190
105 -104 192 -186 193 -182 14 37 280 1398 275 1403 -4 3 -59 -5 -122 -18z"/>
<path d="M8077 2973 c-4 -3 -7 -442 -7 -975 l0 -968 695 0 695 0 0 968 0 969
-487 6 c-620 9 -888 9 -896 0z"/>
<path d="M6234 2051 c-2 -2 -4 -233 -4 -513 l0 -508 695 0 695 0 0 510 0 510
-691 2 c-380 2 -693 1 -695 -1z"/>
<path d="M4390 1195 l0 -165 695 0 695 0 0 165 0 165 -695 0 -695 0 0 -165z"/>
</g>
</svg>
